<mxfile host="app.diagrams.net" modified="2021-12-21T20:18:53.452Z" agent="5.0 (Windows NT 10.0; Win64; x64) AppleWebKit/537.36 (KHTML, like Gecko) Chrome/96.0.4664.110 Safari/537.36" etag="ciTGOGXa8Uto58tB43-J" version="16.0.2" type="github" pages="2">
  <diagram name="Page-1" id="5f0bae14-7c28-e335-631c-24af17079c00">
    <mxGraphModel dx="1422" dy="723" grid="1" gridSize="10" guides="1" tooltips="1" connect="1" arrows="1" fold="1" page="1" pageScale="1" pageWidth="1100" pageHeight="850" background="none" math="0" shadow="0">
      <root>
        <mxCell id="0" />
        <mxCell id="1" parent="0" />
        <mxCell id="39150e848f15840c-1" value="phones&lt;br&gt;" style="verticalAlign=top;align=left;spacingTop=8;spacingLeft=2;spacingRight=12;shape=cube;size=10;direction=south;fontStyle=4;html=1;rounded=0;shadow=0;comic=0;labelBackgroundColor=none;strokeWidth=1;fontFamily=Verdana;fontSize=12" parent="1" vertex="1">
          <mxGeometry x="120" y="70" width="330" height="220" as="geometry" />
        </mxCell>
        <mxCell id="39150e848f15840c-2" value="user&amp;nbsp;" style="verticalAlign=top;align=left;spacingTop=8;spacingLeft=2;spacingRight=12;shape=cube;size=10;direction=south;fontStyle=4;html=1;rounded=0;shadow=0;comic=0;labelBackgroundColor=none;strokeWidth=1;fontFamily=Verdana;fontSize=12" parent="1" vertex="1">
          <mxGeometry x="530" y="70" width="330" height="220" as="geometry" />
        </mxCell>
        <mxCell id="39150e848f15840c-3" value="core api" style="verticalAlign=top;align=left;spacingTop=8;spacingLeft=2;spacingRight=12;shape=cube;size=10;direction=south;fontStyle=4;html=1;rounded=0;shadow=0;comic=0;labelBackgroundColor=none;strokeWidth=1;fontFamily=Verdana;fontSize=12" parent="1" vertex="1">
          <mxGeometry x="370" y="410" width="260" height="150" as="geometry" />
        </mxCell>
        <mxCell id="39150e848f15840c-4" value="phones table&amp;nbsp;" style="html=1;rounded=0;shadow=0;comic=0;labelBackgroundColor=none;strokeWidth=1;fontFamily=Verdana;fontSize=12;align=center;" parent="1" vertex="1">
          <mxGeometry x="160" y="140" width="110" height="50" as="geometry" />
        </mxCell>
        <mxCell id="39150e848f15840c-5" value="Module" style="shape=component;align=left;spacingLeft=36;rounded=0;shadow=0;comic=0;labelBackgroundColor=none;strokeWidth=1;fontFamily=Verdana;fontSize=12;html=1;" parent="1" vertex="1">
          <mxGeometry x="310" y="135" width="120" height="60" as="geometry" />
        </mxCell>
        <mxCell id="39150e848f15840c-6" value="" style="ellipse;whiteSpace=wrap;html=1;rounded=0;shadow=0;comic=0;labelBackgroundColor=none;strokeWidth=1;fontFamily=Verdana;fontSize=12;align=center;" parent="1" vertex="1">
          <mxGeometry x="360" y="230" width="20" height="20" as="geometry" />
        </mxCell>
        <mxCell id="39150e848f15840c-7" value="" style="shape=component;align=left;spacingLeft=36;rounded=0;shadow=0;comic=0;labelBackgroundColor=none;strokeWidth=1;fontFamily=Verdana;fontSize=12;html=1;" parent="1" vertex="1">
          <mxGeometry x="560" y="135" width="120" height="60" as="geometry" />
        </mxCell>
        <mxCell id="39150e848f15840c-8" value="chrage by &lt;br&gt;transfere" style="html=1;rounded=0;shadow=0;comic=0;labelBackgroundColor=none;strokeWidth=1;fontFamily=Verdana;fontSize=12;align=center;" parent="1" vertex="1">
          <mxGeometry x="720" y="140" width="110" height="50" as="geometry" />
        </mxCell>
        <mxCell id="39150e848f15840c-9" value="" style="ellipse;whiteSpace=wrap;html=1;rounded=0;shadow=0;comic=0;labelBackgroundColor=none;strokeWidth=1;fontFamily=Verdana;fontSize=12;align=center;" parent="1" vertex="1">
          <mxGeometry x="620" y="230" width="20" height="20" as="geometry" />
        </mxCell>
        <mxCell id="39150e848f15840c-11" style="edgeStyle=none;rounded=0;html=1;dashed=1;labelBackgroundColor=none;startArrow=none;startFill=0;startSize=8;endArrow=open;endFill=0;endSize=16;fontFamily=Verdana;fontSize=12;" parent="1" target="39150e848f15840c-6" edge="1">
          <mxGeometry relative="1" as="geometry">
            <mxPoint x="484.4000000000001" y="460" as="sourcePoint" />
          </mxGeometry>
        </mxCell>
        <mxCell id="39150e848f15840c-12" style="edgeStyle=none;rounded=0;html=1;dashed=1;labelBackgroundColor=none;startArrow=none;startFill=0;startSize=8;endArrow=open;endFill=0;endSize=16;fontFamily=Verdana;fontSize=12;" parent="1" source="39150e848f15840c-3" target="39150e848f15840c-9" edge="1">
          <mxGeometry relative="1" as="geometry" />
        </mxCell>
        <mxCell id="39150e848f15840c-13" style="edgeStyle=elbowEdgeStyle;rounded=0;html=1;labelBackgroundColor=none;startArrow=none;startFill=0;startSize=8;endArrow=none;endFill=0;endSize=16;fontFamily=Verdana;fontSize=12;" parent="1" source="39150e848f15840c-9" target="39150e848f15840c-7" edge="1">
          <mxGeometry relative="1" as="geometry" />
        </mxCell>
        <mxCell id="39150e848f15840c-14" style="edgeStyle=elbowEdgeStyle;rounded=0;html=1;labelBackgroundColor=none;startArrow=none;startFill=0;startSize=8;endArrow=none;endFill=0;endSize=16;fontFamily=Verdana;fontSize=12;" parent="1" source="39150e848f15840c-6" target="39150e848f15840c-5" edge="1">
          <mxGeometry relative="1" as="geometry" />
        </mxCell>
        <mxCell id="39150e848f15840c-15" style="edgeStyle=orthogonalEdgeStyle;rounded=0;html=1;labelBackgroundColor=none;startArrow=none;startFill=0;startSize=8;endArrow=open;endFill=0;endSize=16;fontFamily=Verdana;fontSize=12;dashed=1;" parent="1" source="39150e848f15840c-5" target="39150e848f15840c-4" edge="1">
          <mxGeometry relative="1" as="geometry">
            <Array as="points">
              <mxPoint x="350" y="220" />
              <mxPoint x="215" y="220" />
            </Array>
          </mxGeometry>
        </mxCell>
        <mxCell id="39150e848f15840c-16" style="edgeStyle=orthogonalEdgeStyle;rounded=0;html=1;dashed=1;labelBackgroundColor=none;startArrow=none;startFill=0;startSize=8;endArrow=open;endFill=0;endSize=16;fontFamily=Verdana;fontSize=12;" parent="1" source="39150e848f15840c-7" target="39150e848f15840c-8" edge="1">
          <mxGeometry relative="1" as="geometry" />
        </mxCell>
        <mxCell id="39150e848f15840c-17" style="edgeStyle=orthogonalEdgeStyle;rounded=0;html=1;labelBackgroundColor=none;startArrow=none;startFill=0;startSize=8;endArrow=none;endFill=0;endSize=16;fontFamily=Verdana;fontSize=12;" parent="1" source="39150e848f15840c-3" target="39150e848f15840c-2" edge="1">
          <mxGeometry relative="1" as="geometry">
            <Array as="points">
              <mxPoint x="695" y="485" />
            </Array>
          </mxGeometry>
        </mxCell>
        <mxCell id="39150e848f15840c-18" style="edgeStyle=orthogonalEdgeStyle;rounded=0;html=1;labelBackgroundColor=none;startArrow=none;startFill=0;startSize=8;endArrow=none;endFill=0;endSize=16;fontFamily=Verdana;fontSize=12;" parent="1" source="39150e848f15840c-3" target="39150e848f15840c-1" edge="1">
          <mxGeometry relative="1" as="geometry">
            <Array as="points">
              <mxPoint x="285" y="485" />
            </Array>
          </mxGeometry>
        </mxCell>
        <mxCell id="aQjoXTz78M6BusPIuLrC-1" value="&amp;nbsp;manage the charge process and phones with their conditions&amp;nbsp;" style="text;html=1;strokeColor=none;fillColor=none;align=center;verticalAlign=middle;whiteSpace=wrap;rounded=0;" vertex="1" parent="1">
          <mxGeometry x="380" y="460" width="240" height="80" as="geometry" />
        </mxCell>
      </root>
    </mxGraphModel>
  </diagram>
  <diagram id="EF_LZFoPeFI5Ngoee_ZV" name="Page-2">
    <mxGraphModel dx="1422" dy="723" grid="1" gridSize="10" guides="1" tooltips="1" connect="1" arrows="1" fold="1" page="1" pageScale="1" pageWidth="850" pageHeight="1100" math="0" shadow="0">
      <root>
        <mxCell id="nzLGvsEe7ojmA1JI-rmk-0" />
        <mxCell id="nzLGvsEe7ojmA1JI-rmk-1" parent="nzLGvsEe7ojmA1JI-rmk-0" />
        <mxCell id="nzLGvsEe7ojmA1JI-rmk-2" value="phonesÂ " style="shape=table;startSize=30;container=1;collapsible=0;childLayout=tableLayout;fontStyle=1;align=center;pointerEvents=1;" vertex="1" parent="nzLGvsEe7ojmA1JI-rmk-1">
          <mxGeometry x="70" y="340" width="1208" height="373" as="geometry" />
        </mxCell>
        <mxCell id="nzLGvsEe7ojmA1JI-rmk-3" value="" style="shape=partialRectangle;html=1;whiteSpace=wrap;collapsible=0;dropTarget=0;pointerEvents=0;fillColor=none;top=0;left=0;bottom=0;right=0;points=[[0,0.5],[1,0.5]];portConstraint=eastwest;" vertex="1" parent="nzLGvsEe7ojmA1JI-rmk-2">
          <mxGeometry y="30" width="1208" height="30" as="geometry" />
        </mxCell>
        <mxCell id="nzLGvsEe7ojmA1JI-rmk-24" value="id" style="shape=partialRectangle;html=1;whiteSpace=wrap;connectable=0;fillColor=none;top=0;left=0;bottom=0;right=0;overflow=hidden;pointerEvents=1;" vertex="1" parent="nzLGvsEe7ojmA1JI-rmk-3">
          <mxGeometry width="142" height="30" as="geometry">
            <mxRectangle width="142" height="30" as="alternateBounds" />
          </mxGeometry>
        </mxCell>
        <mxCell id="nzLGvsEe7ojmA1JI-rmk-21" value="phone" style="shape=partialRectangle;html=1;whiteSpace=wrap;connectable=0;fillColor=none;top=0;left=0;bottom=0;right=0;overflow=hidden;pointerEvents=1;" vertex="1" parent="nzLGvsEe7ojmA1JI-rmk-3">
          <mxGeometry x="142" width="142" height="30" as="geometry">
            <mxRectangle width="142" height="30" as="alternateBounds" />
          </mxGeometry>
        </mxCell>
        <mxCell id="nzLGvsEe7ojmA1JI-rmk-18" value="provider" style="shape=partialRectangle;html=1;whiteSpace=wrap;connectable=0;fillColor=none;top=0;left=0;bottom=0;right=0;overflow=hidden;pointerEvents=1;" vertex="1" parent="nzLGvsEe7ojmA1JI-rmk-3">
          <mxGeometry x="284" width="142" height="30" as="geometry">
            <mxRectangle width="142" height="30" as="alternateBounds" />
          </mxGeometry>
        </mxCell>
        <mxCell id="nzLGvsEe7ojmA1JI-rmk-15" value="balance" style="shape=partialRectangle;html=1;whiteSpace=wrap;connectable=0;fillColor=none;top=0;left=0;bottom=0;right=0;overflow=hidden;pointerEvents=1;" vertex="1" parent="nzLGvsEe7ojmA1JI-rmk-3">
          <mxGeometry x="426" width="142" height="30" as="geometry">
            <mxRectangle width="142" height="30" as="alternateBounds" />
          </mxGeometry>
        </mxCell>
        <mxCell id="nzLGvsEe7ojmA1JI-rmk-4" value="status&amp;nbsp;" style="shape=partialRectangle;html=1;whiteSpace=wrap;connectable=0;fillColor=none;top=0;left=0;bottom=0;right=0;overflow=hidden;pointerEvents=1;" vertex="1" parent="nzLGvsEe7ojmA1JI-rmk-3">
          <mxGeometry x="568" width="142" height="30" as="geometry">
            <mxRectangle width="142" height="30" as="alternateBounds" />
          </mxGeometry>
        </mxCell>
        <mxCell id="nzLGvsEe7ojmA1JI-rmk-5" value="set__dayli_limit" style="shape=partialRectangle;html=1;whiteSpace=wrap;connectable=0;fillColor=none;top=0;left=0;bottom=0;right=0;overflow=hidden;pointerEvents=1;" vertex="1" parent="nzLGvsEe7ojmA1JI-rmk-3">
          <mxGeometry x="710" width="142" height="30" as="geometry">
            <mxRectangle width="142" height="30" as="alternateBounds" />
          </mxGeometry>
        </mxCell>
        <mxCell id="nzLGvsEe7ojmA1JI-rmk-6" value="api_token" style="shape=partialRectangle;html=1;whiteSpace=wrap;connectable=0;fillColor=none;top=0;left=0;bottom=0;right=0;overflow=hidden;pointerEvents=1;" vertex="1" parent="nzLGvsEe7ojmA1JI-rmk-3">
          <mxGeometry x="852" width="178" height="30" as="geometry">
            <mxRectangle width="178" height="30" as="alternateBounds" />
          </mxGeometry>
        </mxCell>
        <mxCell id="nzLGvsEe7ojmA1JI-rmk-30" value="charge_type" style="shape=partialRectangle;html=1;whiteSpace=wrap;connectable=0;fillColor=none;top=0;left=0;bottom=0;right=0;overflow=hidden;pointerEvents=1;" vertex="1" parent="nzLGvsEe7ojmA1JI-rmk-3">
          <mxGeometry x="1030" width="178" height="30" as="geometry">
            <mxRectangle width="178" height="30" as="alternateBounds" />
          </mxGeometry>
        </mxCell>
        <mxCell id="nzLGvsEe7ojmA1JI-rmk-7" value="" style="shape=partialRectangle;html=1;whiteSpace=wrap;collapsible=0;dropTarget=0;pointerEvents=0;fillColor=none;top=0;left=0;bottom=0;right=0;points=[[0,0.5],[1,0.5]];portConstraint=eastwest;" vertex="1" parent="nzLGvsEe7ojmA1JI-rmk-2">
          <mxGeometry y="60" width="1208" height="156" as="geometry" />
        </mxCell>
        <mxCell id="nzLGvsEe7ojmA1JI-rmk-25" style="shape=partialRectangle;html=1;whiteSpace=wrap;connectable=0;fillColor=none;top=0;left=0;bottom=0;right=0;overflow=hidden;pointerEvents=1;" vertex="1" parent="nzLGvsEe7ojmA1JI-rmk-7">
          <mxGeometry width="142" height="156" as="geometry">
            <mxRectangle width="142" height="156" as="alternateBounds" />
          </mxGeometry>
        </mxCell>
        <mxCell id="nzLGvsEe7ojmA1JI-rmk-22" style="shape=partialRectangle;html=1;whiteSpace=wrap;connectable=0;fillColor=none;top=0;left=0;bottom=0;right=0;overflow=hidden;pointerEvents=1;" vertex="1" parent="nzLGvsEe7ojmA1JI-rmk-7">
          <mxGeometry x="142" width="142" height="156" as="geometry">
            <mxRectangle width="142" height="156" as="alternateBounds" />
          </mxGeometry>
        </mxCell>
        <mxCell id="nzLGvsEe7ojmA1JI-rmk-19" style="shape=partialRectangle;html=1;whiteSpace=wrap;connectable=0;fillColor=none;top=0;left=0;bottom=0;right=0;overflow=hidden;pointerEvents=1;" vertex="1" parent="nzLGvsEe7ojmA1JI-rmk-7">
          <mxGeometry x="284" width="142" height="156" as="geometry">
            <mxRectangle width="142" height="156" as="alternateBounds" />
          </mxGeometry>
        </mxCell>
        <mxCell id="nzLGvsEe7ojmA1JI-rmk-16" style="shape=partialRectangle;html=1;whiteSpace=wrap;connectable=0;fillColor=none;top=0;left=0;bottom=0;right=0;overflow=hidden;pointerEvents=1;" vertex="1" parent="nzLGvsEe7ojmA1JI-rmk-7">
          <mxGeometry x="426" width="142" height="156" as="geometry">
            <mxRectangle width="142" height="156" as="alternateBounds" />
          </mxGeometry>
        </mxCell>
        <mxCell id="nzLGvsEe7ojmA1JI-rmk-8" value="" style="shape=partialRectangle;html=1;whiteSpace=wrap;connectable=0;fillColor=none;top=0;left=0;bottom=0;right=0;overflow=hidden;pointerEvents=1;" vertex="1" parent="nzLGvsEe7ojmA1JI-rmk-7">
          <mxGeometry x="568" width="142" height="156" as="geometry">
            <mxRectangle width="142" height="156" as="alternateBounds" />
          </mxGeometry>
        </mxCell>
        <mxCell id="nzLGvsEe7ojmA1JI-rmk-9" value="" style="shape=partialRectangle;html=1;whiteSpace=wrap;connectable=0;fillColor=none;top=0;left=0;bottom=0;right=0;overflow=hidden;pointerEvents=1;" vertex="1" parent="nzLGvsEe7ojmA1JI-rmk-7">
          <mxGeometry x="710" width="142" height="156" as="geometry">
            <mxRectangle width="142" height="156" as="alternateBounds" />
          </mxGeometry>
        </mxCell>
        <mxCell id="nzLGvsEe7ojmA1JI-rmk-10" value="" style="shape=partialRectangle;html=1;whiteSpace=wrap;connectable=0;fillColor=none;top=0;left=0;bottom=0;right=0;overflow=hidden;pointerEvents=1;" vertex="1" parent="nzLGvsEe7ojmA1JI-rmk-7">
          <mxGeometry x="852" width="178" height="156" as="geometry">
            <mxRectangle width="178" height="156" as="alternateBounds" />
          </mxGeometry>
        </mxCell>
        <mxCell id="nzLGvsEe7ojmA1JI-rmk-31" style="shape=partialRectangle;html=1;whiteSpace=wrap;connectable=0;fillColor=none;top=0;left=0;bottom=0;right=0;overflow=hidden;pointerEvents=1;" vertex="1" parent="nzLGvsEe7ojmA1JI-rmk-7">
          <mxGeometry x="1030" width="178" height="156" as="geometry">
            <mxRectangle width="178" height="156" as="alternateBounds" />
          </mxGeometry>
        </mxCell>
        <mxCell id="nzLGvsEe7ojmA1JI-rmk-11" value="" style="shape=partialRectangle;html=1;whiteSpace=wrap;collapsible=0;dropTarget=0;pointerEvents=0;fillColor=none;top=0;left=0;bottom=0;right=0;points=[[0,0.5],[1,0.5]];portConstraint=eastwest;" vertex="1" parent="nzLGvsEe7ojmA1JI-rmk-2">
          <mxGeometry y="216" width="1208" height="157" as="geometry" />
        </mxCell>
        <mxCell id="nzLGvsEe7ojmA1JI-rmk-26" style="shape=partialRectangle;html=1;whiteSpace=wrap;connectable=0;fillColor=none;top=0;left=0;bottom=0;right=0;overflow=hidden;pointerEvents=1;" vertex="1" parent="nzLGvsEe7ojmA1JI-rmk-11">
          <mxGeometry width="142" height="157" as="geometry">
            <mxRectangle width="142" height="157" as="alternateBounds" />
          </mxGeometry>
        </mxCell>
        <mxCell id="nzLGvsEe7ojmA1JI-rmk-23" style="shape=partialRectangle;html=1;whiteSpace=wrap;connectable=0;fillColor=none;top=0;left=0;bottom=0;right=0;overflow=hidden;pointerEvents=1;" vertex="1" parent="nzLGvsEe7ojmA1JI-rmk-11">
          <mxGeometry x="142" width="142" height="157" as="geometry">
            <mxRectangle width="142" height="157" as="alternateBounds" />
          </mxGeometry>
        </mxCell>
        <mxCell id="nzLGvsEe7ojmA1JI-rmk-20" style="shape=partialRectangle;html=1;whiteSpace=wrap;connectable=0;fillColor=none;top=0;left=0;bottom=0;right=0;overflow=hidden;pointerEvents=1;" vertex="1" parent="nzLGvsEe7ojmA1JI-rmk-11">
          <mxGeometry x="284" width="142" height="157" as="geometry">
            <mxRectangle width="142" height="157" as="alternateBounds" />
          </mxGeometry>
        </mxCell>
        <mxCell id="nzLGvsEe7ojmA1JI-rmk-17" style="shape=partialRectangle;html=1;whiteSpace=wrap;connectable=0;fillColor=none;top=0;left=0;bottom=0;right=0;overflow=hidden;pointerEvents=1;" vertex="1" parent="nzLGvsEe7ojmA1JI-rmk-11">
          <mxGeometry x="426" width="142" height="157" as="geometry">
            <mxRectangle width="142" height="157" as="alternateBounds" />
          </mxGeometry>
        </mxCell>
        <mxCell id="nzLGvsEe7ojmA1JI-rmk-12" value="" style="shape=partialRectangle;html=1;whiteSpace=wrap;connectable=0;fillColor=none;top=0;left=0;bottom=0;right=0;overflow=hidden;pointerEvents=1;" vertex="1" parent="nzLGvsEe7ojmA1JI-rmk-11">
          <mxGeometry x="568" width="142" height="157" as="geometry">
            <mxRectangle width="142" height="157" as="alternateBounds" />
          </mxGeometry>
        </mxCell>
        <mxCell id="nzLGvsEe7ojmA1JI-rmk-13" value="" style="shape=partialRectangle;html=1;whiteSpace=wrap;connectable=0;fillColor=none;top=0;left=0;bottom=0;right=0;overflow=hidden;pointerEvents=1;" vertex="1" parent="nzLGvsEe7ojmA1JI-rmk-11">
          <mxGeometry x="710" width="142" height="157" as="geometry">
            <mxRectangle width="142" height="157" as="alternateBounds" />
          </mxGeometry>
        </mxCell>
        <mxCell id="nzLGvsEe7ojmA1JI-rmk-14" value="" style="shape=partialRectangle;html=1;whiteSpace=wrap;connectable=0;fillColor=none;top=0;left=0;bottom=0;right=0;overflow=hidden;pointerEvents=1;" vertex="1" parent="nzLGvsEe7ojmA1JI-rmk-11">
          <mxGeometry x="852" width="178" height="157" as="geometry">
            <mxRectangle width="178" height="157" as="alternateBounds" />
          </mxGeometry>
        </mxCell>
        <mxCell id="nzLGvsEe7ojmA1JI-rmk-32" style="shape=partialRectangle;html=1;whiteSpace=wrap;connectable=0;fillColor=none;top=0;left=0;bottom=0;right=0;overflow=hidden;pointerEvents=1;" vertex="1" parent="nzLGvsEe7ojmA1JI-rmk-11">
          <mxGeometry x="1030" width="178" height="157" as="geometry">
            <mxRectangle width="178" height="157" as="alternateBounds" />
          </mxGeometry>
        </mxCell>
      </root>
    </mxGraphModel>
  </diagram>
</mxfile>
